<?xml version="1.0" encoding="utf-8"?>
<!-- Generator: Adobe Illustrator 21.1.0, SVG Export Plug-In . SVG Version: 6.00 Build 0)  -->
<svg version="1.1" id="Layer_1" xmlns="http://www.w3.org/2000/svg" xmlns:xlink="http://www.w3.org/1999/xlink" x="0px" y="0px"
	 viewBox="0 0 595.3 385.2" style="enable-background:new 0 0 595.3 385.2;" xml:space="preserve">
<style type="text/css">
	.st0{fill:#326DE6;}
	.st1{filter:url(#Adobe_OpacityMaskFilter);}
	.st2{fill:#FFFFFF;}
	.st3{mask:url(#mask-2_7_);fill:#326DE6;}
	.st4{fill:#0C4CBF;}
	.st5{fill:#3D7FF4;}
</style>
<path class="st0" d="M117.4,187C117.3,187,117.3,187,117.4,187L117.4,187c-0.1,0-0.2,0-0.2-0.1c-0.1,0-0.3-0.1-0.4-0.1
	c-0.5-0.1-0.9-0.1-1.4-0.1c-0.2,0-0.4,0-0.7-0.1h-0.1c-1.5-0.1-2.7-0.3-3.9-0.6c-0.5-0.2-0.6-0.5-0.8-0.8c0-0.1-0.1-0.1-0.1-0.1
	l-0.9-0.3c0.4-3.4,0.3-6.8-0.5-10.1c-0.8-3.3-2.1-6.5-4-9.4l0.7-0.6v-0.1c0-0.4,0.1-0.7,0.4-1.1c0.9-0.8,1.9-1.4,3.2-2.2
	c0.2-0.1,0.4-0.2,0.6-0.4c0.4-0.2,0.8-0.4,1.2-0.7c0.1-0.1,0.2-0.1,0.4-0.3c0.1-0.1,0.1-0.1,0.1-0.1c1-0.9,1.2-2.3,0.5-3.2
	c-0.4-0.5-1-0.8-1.6-0.8c-0.6,0-1.1,0.2-1.6,0.6l-0.1,0.1c-0.1,0.1-0.2,0.2-0.4,0.3c-0.4,0.4-0.6,0.6-0.9,1
	c-0.1,0.1-0.3,0.4-0.5,0.5c-1,1.1-1.9,1.9-2.9,2.6c-0.2,0.1-0.4,0.2-0.6,0.2c-0.1,0-0.3,0-0.4-0.1h-0.1l-0.9,0.6
	c-0.9-1-1.9-1.9-2.9-2.7c-4.3-3.4-9.5-5.4-14.9-5.9l-0.1-0.9l-0.1-0.1c-0.2-0.2-0.5-0.4-0.6-0.9c-0.1-1.1,0.1-2.4,0.2-3.9V147
	c0-0.2,0.1-0.5,0.1-0.7c0.1-0.4,0.1-0.9,0.2-1.4v-0.6c0-1.3-1-2.4-2.2-2.4c-0.6,0-1.1,0.3-1.6,0.7c-0.4,0.4-0.6,1-0.6,1.6v0.6
	c0,0.5,0.1,0.9,0.2,1.4c0.1,0.2,0.1,0.4,0.1,0.7v0.1c0.1,1.4,0.4,2.7,0.2,3.9c-0.1,0.5-0.4,0.7-0.6,0.9l-0.1,0.1l-0.1,0.9
	c-1.3,0.1-2.6,0.3-3.9,0.6c-5.5,1.2-10.4,4-14.1,8l-0.7-0.5H60c-0.1,0-0.3,0.1-0.4,0.1c-0.2,0-0.4-0.1-0.6-0.2
	c-0.9-0.6-1.9-1.6-2.9-2.6c-0.1-0.1-0.3-0.4-0.5-0.5c-0.3-0.4-0.6-0.6-0.9-1c-0.1-0.1-0.2-0.1-0.4-0.3c-0.1-0.1-0.1-0.1-0.1-0.1
	c-0.4-0.4-1-0.6-1.6-0.6c-0.6,0-1.3,0.3-1.6,0.8c-0.7,0.9-0.5,2.4,0.5,3.2c0.1,0,0.1,0.1,0.1,0.1c0.1,0.1,0.2,0.2,0.4,0.3
	c0.4,0.3,0.8,0.5,1.2,0.7c0.2,0.1,0.4,0.2,0.6,0.4c1.3,0.8,2.4,1.4,3.2,2.2c0.4,0.4,0.4,0.7,0.4,1.1v0.1l0.7,0.6
	c-0.1,0.2-0.3,0.4-0.4,0.6c-3.6,5.6-4.9,12.3-4,18.9l-0.9,0.3c0,0.1-0.1,0.1-0.1,0.1c-0.1,0.3-0.4,0.6-0.8,0.8
	c-1.1,0.4-2.4,0.5-3.9,0.6H48c-0.2,0-0.5,0-0.7,0.1c-0.4,0-0.9,0.1-1.4,0.1c-0.1,0-0.3,0.1-0.4,0.1c-0.1,0-0.1,0-0.2,0.1
	c-1.3,0.3-2.1,1.5-1.9,2.6c0.2,1,1.1,1.6,2.3,1.6c0.2,0,0.4,0,0.6-0.1c0.1,0,0.1,0,0.1-0.1c0.1,0,0.3-0.1,0.4-0.1
	c0.5-0.1,0.9-0.3,1.3-0.5c0.2-0.1,0.4-0.2,0.6-0.3h0.1c1.4-0.5,2.6-0.9,3.7-1.1h0.1c0.4,0,0.7,0.2,0.9,0.4c0.1,0,0.1,0.1,0.1,0.1
	l1-0.1c1.7,5.3,5,10,9.4,13.4c1,0.8,2,1.4,3.1,2.1l-0.4,0.9c0,0.1,0.1,0.1,0.1,0.1c0.1,0.3,0.3,0.6,0.1,1.1
	c-0.4,1.1-1.1,2.1-1.9,3.4v0.1c-0.1,0.2-0.3,0.4-0.4,0.6c-0.3,0.4-0.5,0.7-0.8,1.1c-0.1,0.1-0.1,0.2-0.2,0.4c0,0.1-0.1,0.1-0.1,0.1
	c-0.6,1.2-0.1,2.6,0.9,3.1c0.3,0.1,0.6,0.2,0.9,0.2c0.9,0,1.7-0.6,2.1-1.4c0-0.1,0.1-0.1,0.1-0.1c0.1-0.1,0.1-0.3,0.2-0.4
	c0.2-0.5,0.3-0.9,0.4-1.3l0.2-0.6c0.5-1.4,0.9-2.6,1.5-3.6c0.3-0.4,0.6-0.5,0.9-0.6c0.1,0,0.1,0,0.1-0.1l0.5-0.9
	c3.1,1.2,6.6,1.9,10,1.9c2.1,0,4.2-0.2,6.2-0.7c1.3-0.3,2.5-0.6,3.7-1.1l0.4,0.8c0.1,0,0.1,0,0.1,0.1c0.4,0.1,0.6,0.2,0.9,0.6
	c0.6,1,1,2.2,1.5,3.6v0.1l0.2,0.6c0.1,0.4,0.2,0.9,0.4,1.3c0.1,0.1,0.1,0.2,0.2,0.4c0,0.1,0.1,0.1,0.1,0.1c0.4,0.9,1.3,1.4,2.1,1.4
	c0.3,0,0.6-0.1,0.9-0.2c0.5-0.3,0.9-0.7,1.1-1.3c0.1-0.6,0.1-1.2-0.1-1.8c0-0.1-0.1-0.1-0.1-0.1c-0.1-0.1-0.1-0.3-0.2-0.4
	c-0.2-0.4-0.5-0.8-0.8-1.1c-0.1-0.2-0.3-0.4-0.4-0.6v-0.1c-0.8-1.2-1.5-2.3-1.9-3.4c-0.1-0.5,0-0.8,0.1-1.1c0-0.1,0.1-0.1,0.1-0.1
	l-0.4-0.9c3.8-2.2,7-5.4,9.4-9.2c1.3-2,2.3-4.2,3-6.4l0.9,0.1c0.1,0,0.1-0.1,0.1-0.1c0.3-0.1,0.5-0.4,0.9-0.4h0.1
	c1.1,0.1,2.4,0.6,3.7,1.1h0.1c0.2,0.1,0.4,0.2,0.6,0.3c0.4,0.2,0.8,0.4,1.3,0.5c0.1,0,0.3,0.1,0.4,0.1c0.1,0,0.1,0,0.2,0.1
	c0.2,0.1,0.4,0.1,0.6,0.1c1.1,0,2-0.7,2.3-1.6C119.5,188.5,118.7,187.3,117.4,187L117.4,187z M84.3,183.5l-3.1,1.5l-3.1-1.5
	l-0.8-3.4l2.1-2.7h3.5l2.1,2.7L84.3,183.5L84.3,183.5z M103,176.1c0.6,2.4,0.7,4.8,0.5,7.2l-10.9-3.1c-1-0.3-1.6-1.3-1.4-2.3
	c0.1-0.3,0.2-0.6,0.4-0.8l8.6-7.8C101.5,171.3,102.4,173.6,103,176.1L103,176.1z M96.8,165l-9.4,6.6c-0.8,0.5-1.9,0.4-2.5-0.4
	c-0.2-0.2-0.3-0.5-0.4-0.8L84,158.8C88.8,159.3,93.4,161.5,96.8,165L96.8,165z M76.1,159.1c0.8-0.1,1.5-0.3,2.3-0.4l-0.6,11.4
	c-0.1,1-0.9,1.9-1.9,1.9c-0.3,0-0.6-0.1-0.9-0.2l-9.5-6.8C68.4,162.1,72,160.1,76.1,159.1L76.1,159.1z M62,169.3l8.5,7.6
	c0.8,0.6,0.9,1.9,0.2,2.6c-0.2,0.3-0.5,0.5-0.9,0.6l-11.1,3.2C58.4,178.4,59.5,173.5,62,169.3L62,169.3z M60.1,188.6l11.4-1.9
	c0.9-0.1,1.8,0.6,2,1.5c0.1,0.4,0.1,0.8-0.1,1.1L69,199.8C65,197.3,61.8,193.3,60.1,188.6L60.1,188.6z M86.2,202.8
	c-1.6,0.4-3.3,0.6-5,0.6c-2.5,0-4.9-0.4-7.2-1.1l5.6-10.2c0.6-0.6,1.5-0.9,2.3-0.5c0.3,0.2,0.6,0.5,0.9,0.8l5.5,9.9
	C87.6,202.5,86.9,202.6,86.2,202.8L86.2,202.8z M100.1,192.9c-1.8,2.9-4.1,5.1-6.9,6.9L88.8,189c-0.2-0.9,0.1-1.8,1-2.2
	c0.3-0.1,0.6-0.2,1-0.2l11.4,1.9C101.7,190.1,101,191.5,100.1,192.9L100.1,192.9z"/>
<g id="border_1_" transform="translate(0.000000, 2.554588)">
	<g>
		<defs>
			<filter id="Adobe_OpacityMaskFilter" filterUnits="userSpaceOnUse" x="36.7" y="132.2" width="90.9" height="88.5">
				<feColorMatrix  type="matrix" values="1 0 0 0 0  0 1 0 0 0  0 0 1 0 0  0 0 0 1 0"/>
			</filter>
		</defs>
		<mask maskUnits="userSpaceOnUse" x="36.7" y="132.2" width="90.9" height="88.5" id="mask-2_7_">
			<g class="st1">
				<polygon id="path-1_7_" class="st2" points="127.5,220.7 127.5,132.2 36.7,132.2 36.7,220.7 				"/>
			</g>
		</mask>
		<path id="Fill-1_9_" class="st3" d="M82.2,132.2L82.2,132.2c-1.2,0-2.5,0.3-3.6,0.8l-29.7,14.2c-2.4,1.1-4,3.2-4.6,5.7l-7.3,31.9
			c-0.6,2.5,0,5.1,1.6,7.2l20.6,25.6c1.6,2,4,3.1,6.5,3.1h33c2.5,0,4.9-1.1,6.5-3.1l20.6-25.6c1.6-2,2.2-4.6,1.6-7.2L120,153
			c-0.6-2.5-2.2-4.6-4.6-5.7l-29.6-14.2C84.7,132.5,83.4,132.2,82.2,132.2 M82.2,135c0.8,0,1.6,0.2,2.4,0.5l29.7,14.2
			c1.5,0.8,2.7,2.2,3.1,3.8l7.3,31.9c0.4,1.7,0,3.5-1.1,4.8l-20.6,25.6c-1.1,1.4-2.7,2.1-4.4,2.1h-33c-1.7,0-3.3-0.8-4.4-2.1
			l-20.6-25.6c-1.1-1.4-1.5-3.1-1.1-4.8l7.3-31.9c0.4-1.7,1.5-3.1,3.1-3.8l29.7-14.2C80.5,135.2,81.4,135,82.2,135"/>
	</g>
</g>
<circle class="st2" cx="81.4" cy="181" r="22.5"/>
<g>
	<polygon class="st4" points="69.7,194.2 87.5,184.1 82.8,181.1 69.9,188.7 69.2,189.3 	"/>
	<polygon class="st0" points="69.7,175.2 69.7,194.7 64.5,191.9 63.9,172.1 	"/>
	<polygon class="st4" points="81.8,195.7 69.7,188.9 64.5,191.9 82.2,201.6 82,201.5 	"/>
	<polygon class="st4" points="100,171.1 81.5,161.7 76.6,164.6 94.4,174.3 94.6,174.2 	"/>
	<path class="st0" d="M81.9,162c-0.1-0.1-0.3-0.2-0.4-0.2c0,0,0,0,0.1,0c0,0-0.2,0-0.2,0l-5,3.1L76.3,185l5.8-3.2l-0.5-19.7
		C81.5,162,82,162,81.9,162z"/>
	<polygon class="st4" points="81.9,181.9 100,171.1 94.5,168.4 82.1,176.1 81.8,176 	"/>
	<path class="st4" d="M69.8,174.5l17-10.1l-5.3-2.7l-12.3,7.4l-0.5,0.3l0.2,4.7C69.3,174.2,69.6,174.3,69.8,174.5z"/>
	<polygon class="st0" points="100,191.4 100,171.1 94.3,174.5 94.2,194.7 	"/>
	<polygon class="st4" points="82.1,201.6 100,191.4 95,188.5 82.3,196.1 82,195.9 	"/>
	<path class="st4" d="M95.1,193.3l3.4-2.8l-15.3-8.9l-5.1,2.4L94.1,194C94.2,193.9,94.9,193.4,95.1,193.3z"/>
	<polygon class="st5" points="86.2,199.2 86.3,179.2 82.2,181.7 82.2,201.6 	"/>
	<polygon class="st4" points="81.8,175.9 68.9,169.3 63.9,172.1 82,182.1 82.2,182 	"/>
	<polygon class="st0" points="82.3,181.7 82.2,201.6 78.1,199.4 78.4,180.1 	"/>
</g>
<g>
	<g>
		<path class="st0" d="M186.5,210.4c-1.2-2-2.7-4.1-4.4-6.4s-3.5-4.6-5.4-7c-1.9-2.3-4-4.6-6.1-6.7s-4.2-4-6.3-5.7v25.8h-13.7v-60.9
			h13.7v22.9c3.5-3.7,7.1-7.6,10.7-11.6c3.6-4,7-7.8,10.1-11.3h16.3c-4.1,4.9-8.3,9.7-12.5,14.2c-4.2,4.6-8.6,9.1-13.2,13.7
			c4.9,4.1,9.6,8.9,14.1,14.5s8.9,11.7,13,18.4H186.5z"/>
		<path class="st0" d="M246.2,208.9c-2.2,0.6-5.1,1.2-8.6,1.8c-3.5,0.6-7.2,0.8-11.1,0.8c-3.9,0-7.2-0.5-9.8-1.6
			c-2.6-1.1-4.7-2.5-6.2-4.4c-1.5-1.9-2.6-4.2-3.2-6.8c-0.6-2.6-1-5.5-1-8.7v-25.7h13.1v24.2c0,4.2,0.6,7.3,1.7,9.1
			c1.1,1.9,3.2,2.8,6.2,2.8c0.9,0,1.9,0,3-0.1s2-0.2,2.8-0.3v-35.7h13.1V208.9z"/>
		<path class="st0" d="M301.5,187.3c0,3.7-0.5,7-1.6,10c-1.1,3-2.6,5.5-4.7,7.6c-2.1,2.1-4.6,3.7-7.6,4.9c-3,1.1-6.4,1.7-10.2,1.7
			c-1.6,0-3.2-0.1-5-0.2c-1.7-0.1-3.4-0.3-5.1-0.6c-1.7-0.2-3.3-0.5-4.8-0.8c-1.5-0.3-2.9-0.7-4-1v-64.6l13.1-2.1v23
			c1.5-0.6,3-1.1,4.6-1.5c1.6-0.4,3.3-0.5,5.1-0.5c3.3,0,6.2,0.6,8.7,1.7c2.5,1.1,4.6,2.8,6.3,4.9c1.7,2.1,3,4.6,3.9,7.6
			C301,180.4,301.5,183.7,301.5,187.3z M288.1,187c0-8.4-3.1-12.6-9.3-12.6c-1.3,0-2.7,0.2-4,0.5c-1.3,0.4-2.4,0.8-3.2,1.3V200
			c0.6,0.1,1.5,0.2,2.5,0.3c1,0.1,2.1,0.1,3.2,0.1c3.6,0,6.3-1.2,8.1-3.7C287.2,194.3,288.1,191,288.1,187z"/>
		<path class="st0" d="M309.4,187.7c0-4.1,0.6-7.7,1.9-10.8s2.9-5.6,5-7.7c2-2,4.4-3.6,7.1-4.7c2.7-1.1,5.4-1.6,8.2-1.6
			c6.6,0,11.7,2,15.5,6c3.8,4,5.7,9.9,5.7,17.7c0,0.8,0,1.6-0.1,2.5c-0.1,0.9-0.1,1.7-0.2,2.4h-29.7c0.3,2.7,1.5,4.8,3.8,6.4
			c2.2,1.6,5.2,2.4,9,2.4c2.4,0,4.8-0.2,7.1-0.7c2.3-0.4,4.2-1,5.7-1.6l1.8,10.6c-0.7,0.4-1.6,0.7-2.8,1.1c-1.2,0.4-2.5,0.7-3.9,0.9
			c-1.4,0.3-3,0.5-4.6,0.7c-1.6,0.2-3.3,0.3-4.9,0.3c-4.2,0-7.8-0.6-10.8-1.8c-3.1-1.2-5.6-2.9-7.6-5c-2-2.1-3.5-4.7-4.5-7.6
			C309.9,194.3,309.4,191.1,309.4,187.7z M340.1,182.7c-0.1-1.1-0.2-2.2-0.6-3.2c-0.3-1.1-0.8-2-1.5-2.8c-0.7-0.8-1.5-1.5-2.5-2
			c-1-0.5-2.3-0.8-3.8-0.8c-1.5,0-2.7,0.2-3.8,0.7c-1.1,0.5-1.9,1.2-2.6,2c-0.7,0.8-1.2,1.8-1.6,2.9c-0.4,1.1-0.7,2.2-0.8,3.3H340.1
			z"/>
		<path class="st0" d="M405.8,187.3c0,3.6-0.4,6.8-1.3,9.7c-0.9,2.9-2.2,5.4-3.9,7.6c-1.7,2.1-3.8,3.7-6.3,4.9
			c-2.5,1.2-5.4,1.8-8.7,1.8c-1.8,0-3.5-0.2-5.1-0.5c-1.6-0.4-3.1-0.8-4.6-1.5v17.4h-13.1v-60.9c1.2-0.4,2.5-0.7,4-1
			c1.5-0.3,3.1-0.6,4.8-0.8c1.7-0.2,3.4-0.4,5.1-0.6c1.7-0.1,3.4-0.2,5-0.2c3.8,0,7.2,0.6,10.2,1.7c3,1.1,5.5,2.8,7.6,4.8
			c2,2.1,3.6,4.6,4.7,7.6C405.3,180.3,405.8,183.7,405.8,187.3z M392.5,187.7c0-4-0.9-7.3-2.7-9.7c-1.8-2.4-4.5-3.6-8.1-3.6
			c-1.2,0-2.3,0-3.2,0.1c-1,0.1-1.8,0.2-2.5,0.3v23.6c0.8,0.5,1.9,1,3.2,1.3c1.3,0.4,2.6,0.5,4,0.5
			C389.4,200.3,392.5,196.1,392.5,187.7z"/>
		<path class="st0" d="M432.5,163c3.9,0,7.1,0.4,9.7,1.3c2.6,0.9,4.6,2.1,6.2,3.8c1.6,1.6,2.6,3.6,3.3,6c0.6,2.3,1,4.9,1,7.8v27.2
			c-1.9,0.4-4.5,0.9-7.8,1.4c-3.3,0.6-7.4,0.8-12.1,0.8c-3,0-5.7-0.3-8.1-0.8c-2.4-0.5-4.5-1.4-6.3-2.6c-1.8-1.2-3.1-2.8-4-4.7
			c-0.9-1.9-1.4-4.3-1.4-7.1c0-2.7,0.5-5,1.6-6.9c1.1-1.9,2.5-3.4,4.3-4.5c1.8-1.1,3.9-1.9,6.2-2.4c2.3-0.5,4.8-0.7,7.3-0.7
			c1.7,0,3.2,0.1,4.5,0.2c1.3,0.1,2.4,0.3,3.2,0.6v-1.2c0-2.2-0.7-4-2-5.4c-1.3-1.3-3.7-2-7-2c-2.2,0-4.4,0.2-6.6,0.5
			c-2.2,0.3-4,0.8-5.6,1.4l-1.7-10.5c0.8-0.2,1.7-0.5,2.9-0.7c1.1-0.3,2.4-0.5,3.7-0.7c1.3-0.2,2.8-0.4,4.3-0.5
			C429.5,163.1,431,163,432.5,163z M433.6,201.3c1.3,0,2.5,0,3.7-0.1c1.2-0.1,2.1-0.1,2.8-0.3V191c-0.5-0.1-1.3-0.2-2.4-0.4
			c-1.1-0.1-2-0.2-2.9-0.2c-1.2,0-2.4,0.1-3.5,0.2c-1.1,0.1-2,0.4-2.9,0.8c-0.8,0.4-1.5,1-1.9,1.7c-0.5,0.7-0.7,1.6-0.7,2.6
			c0,2.1,0.7,3.5,2.1,4.3C429.3,200.9,431.2,201.3,433.6,201.3z"/>
		<path class="st0" d="M462.3,187.3c0-3.3,0.5-6.5,1.6-9.4c1.1-3,2.6-5.5,4.7-7.7c2-2.2,4.5-3.9,7.5-5.2c2.9-1.3,6.3-1.9,10-1.9
			c2.5,0,4.7,0.2,6.8,0.7c2,0.4,4,1.1,6,1.9l-2.7,10.5c-1.2-0.5-2.6-0.9-4-1.2c-1.5-0.4-3.1-0.5-4.9-0.5c-3.9,0-6.7,1.2-8.7,3.6
			c-1.9,2.4-2.9,5.6-2.9,9.5c0,4.2,0.9,7.4,2.7,9.7c1.8,2.3,4.9,3.4,9.4,3.4c1.6,0,3.3-0.1,5.1-0.4c1.8-0.3,3.5-0.8,5-1.4l1.8,10.7
			c-1.5,0.6-3.4,1.2-5.7,1.7c-2.3,0.5-4.8,0.7-7.6,0.7c-4.2,0-7.8-0.6-10.9-1.9c-3-1.3-5.5-3-7.5-5.1c-2-2.2-3.4-4.7-4.3-7.7
			C462.7,194,462.3,190.8,462.3,187.3z"/>
		<path class="st0" d="M521.5,180.8c1.3-1.4,2.6-2.9,4-4.4c1.4-1.5,2.7-3,4-4.5c1.3-1.5,2.5-2.9,3.6-4.2c1.1-1.3,2.1-2.5,2.9-3.5
			h15.6c-3.1,3.6-6.1,7-9.1,10.2c-3,3.2-6.2,6.6-9.7,10c1.8,1.6,3.6,3.5,5.4,5.7c1.9,2.2,3.7,4.5,5.4,6.8s3.4,4.7,4.8,7
			c1.5,2.3,2.7,4.5,3.7,6.4h-15c-0.9-1.5-2-3.2-3.2-5.1c-1.2-1.8-2.5-3.7-3.8-5.5c-1.3-1.8-2.8-3.6-4.3-5.3c-1.5-1.7-3-3.1-4.4-4.3
			v20.2h-13.1v-66l13.1-2.1V180.8z"/>
	</g>
</g>
</svg>
