<?xml version="1.0" encoding="utf-8"?>
<!-- Generator: Adobe Illustrator 21.1.0, SVG Export Plug-In . SVG Version: 6.00 Build 0)  -->
<svg version="1.1" id="Layer_1" xmlns="http://www.w3.org/2000/svg" xmlns:xlink="http://www.w3.org/1999/xlink" x="0px" y="0px"
	 viewBox="0 0 112.5 108.6" style="enable-background:new 0 0 112.5 108.6;" xml:space="preserve">
<style type="text/css">
	.st0{fill:#326DE6;}
	.st1{filter:url(#Adobe_OpacityMaskFilter);}
	.st2{fill:#FFFFFF;}
	.st3{mask:url(#mask-2_7_);fill:#326DE6;}
	.st4{fill:#0C4CBF;}
	.st5{fill:#3D7FF4;}
</style>
<path class="st0" d="M91.9,60.5C91.8,60.5,91.8,60.5,91.9,60.5L91.9,60.5c-0.1,0-0.2,0-0.2-0.1c-0.1,0-0.3-0.1-0.4-0.1
	c-0.5-0.1-0.9-0.1-1.4-0.1c-0.2,0-0.4,0-0.7-0.1h-0.1c-1.5-0.1-2.7-0.3-3.9-0.6c-0.5-0.2-0.6-0.5-0.8-0.8c0-0.1-0.1-0.1-0.1-0.1
	l-0.9-0.3c0.4-3.4,0.3-6.8-0.5-10.1c-0.8-3.3-2.1-6.5-4-9.4l0.7-0.6v-0.1c0-0.4,0.1-0.7,0.4-1.1c0.9-0.8,1.9-1.4,3.2-2.2
	c0.2-0.1,0.4-0.2,0.6-0.4c0.4-0.2,0.8-0.4,1.2-0.7c0.1-0.1,0.2-0.1,0.4-0.3c0.1-0.1,0.1-0.1,0.1-0.1c1-0.9,1.2-2.3,0.5-3.2
	c-0.4-0.5-1-0.8-1.6-0.8c-0.6,0-1.1,0.2-1.6,0.6L82.8,30c-0.1,0.1-0.2,0.2-0.4,0.3c-0.4,0.4-0.6,0.6-0.9,1c-0.1,0.1-0.3,0.4-0.5,0.5
	c-1,1.1-1.9,1.9-2.9,2.6c-0.2,0.1-0.4,0.2-0.6,0.2c-0.1,0-0.3,0-0.4-0.1h-0.1l-0.9,0.6c-0.9-1-1.9-1.9-2.9-2.7
	c-4.3-3.4-9.5-5.4-14.9-5.9l-0.1-0.9L58,25.4c-0.2-0.2-0.5-0.4-0.6-0.9c-0.1-1.1,0.1-2.4,0.2-3.9v-0.1c0-0.2,0.1-0.5,0.1-0.7
	c0.1-0.4,0.1-0.9,0.2-1.4v-0.6c0-1.3-1-2.4-2.2-2.4c-0.6,0-1.1,0.3-1.6,0.7c-0.4,0.4-0.6,1-0.6,1.6v0.6c0,0.5,0.1,0.9,0.2,1.4
	c0.1,0.2,0.1,0.4,0.1,0.7v0.1c0.1,1.4,0.4,2.7,0.2,3.9c-0.1,0.5-0.4,0.7-0.6,0.9l-0.1,0.1l-0.1,0.9c-1.3,0.1-2.6,0.3-3.9,0.6
	c-5.5,1.2-10.4,4-14.1,8l-0.7-0.5h-0.1c-0.1,0-0.3,0.1-0.4,0.1c-0.2,0-0.4-0.1-0.6-0.2c-0.9-0.6-1.9-1.6-2.9-2.6
	c-0.1-0.1-0.3-0.4-0.5-0.5c-0.3-0.4-0.6-0.6-0.9-1c-0.1-0.1-0.2-0.1-0.4-0.3c-0.1-0.1-0.1-0.1-0.1-0.1c-0.4-0.4-1-0.6-1.6-0.6
	c-0.6,0-1.3,0.3-1.6,0.8c-0.7,0.9-0.5,2.4,0.5,3.2c0.1,0,0.1,0.1,0.1,0.1c0.1,0.1,0.2,0.2,0.4,0.3c0.4,0.3,0.8,0.5,1.2,0.7
	c0.2,0.1,0.4,0.2,0.6,0.4c1.3,0.8,2.4,1.4,3.2,2.2c0.4,0.4,0.4,0.7,0.4,1.1V38l0.7,0.6c-0.1,0.2-0.3,0.4-0.4,0.6
	c-3.6,5.6-4.9,12.3-4,18.9l-0.9,0.3c0,0.1-0.1,0.1-0.1,0.1c-0.1,0.3-0.4,0.6-0.8,0.8c-1.1,0.4-2.4,0.5-3.9,0.6h-0.1
	c-0.2,0-0.5,0-0.7,0.1c-0.4,0-0.9,0.1-1.4,0.1c-0.1,0-0.3,0.1-0.4,0.1c-0.1,0-0.1,0-0.2,0.1c-1.3,0.3-2.1,1.5-1.9,2.6
	c0.2,1,1.1,1.6,2.3,1.6c0.2,0,0.4,0,0.6-0.1c0.1,0,0.1,0,0.1-0.1c0.1,0,0.3-0.1,0.4-0.1c0.5-0.1,0.9-0.3,1.3-0.5
	c0.2-0.1,0.4-0.2,0.6-0.3h0.1c1.4-0.5,2.6-0.9,3.7-1.1h0.1c0.4,0,0.7,0.2,0.9,0.4c0.1,0,0.1,0.1,0.1,0.1l1-0.1
	c1.7,5.3,5,10,9.4,13.4c1,0.8,2,1.4,3.1,2.1l-0.4,0.9c0,0.1,0.1,0.1,0.1,0.1c0.1,0.3,0.3,0.6,0.1,1.1c-0.4,1.1-1.1,2.1-1.9,3.4v0.1
	c-0.1,0.2-0.3,0.4-0.4,0.6c-0.3,0.4-0.5,0.7-0.8,1.1c-0.1,0.1-0.1,0.2-0.2,0.4c0,0.1-0.1,0.1-0.1,0.1c-0.6,1.2-0.1,2.6,0.9,3.1
	c0.3,0.1,0.6,0.2,0.9,0.2c0.9,0,1.7-0.6,2.1-1.4c0-0.1,0.1-0.1,0.1-0.1c0.1-0.1,0.1-0.3,0.2-0.4c0.2-0.5,0.3-0.9,0.4-1.3l0.2-0.6
	c0.5-1.4,0.9-2.6,1.5-3.6c0.3-0.4,0.6-0.5,0.9-0.6c0.1,0,0.1,0,0.1-0.1l0.5-0.9c3.1,1.2,6.6,1.9,10,1.9c2.1,0,4.2-0.2,6.2-0.7
	c1.3-0.3,2.5-0.6,3.7-1.1l0.4,0.8c0.1,0,0.1,0,0.1,0.1c0.4,0.1,0.6,0.2,0.9,0.6c0.6,1,1,2.2,1.5,3.6v0.1l0.2,0.6
	c0.1,0.4,0.2,0.9,0.4,1.3c0.1,0.1,0.1,0.2,0.2,0.4c0,0.1,0.1,0.1,0.1,0.1c0.4,0.9,1.3,1.4,2.1,1.4c0.3,0,0.6-0.1,0.9-0.2
	c0.5-0.3,0.9-0.7,1.1-1.3c0.1-0.6,0.1-1.2-0.1-1.8c0-0.1-0.1-0.1-0.1-0.1c-0.1-0.1-0.1-0.3-0.2-0.4c-0.2-0.4-0.5-0.8-0.8-1.1
	c-0.1-0.2-0.3-0.4-0.4-0.6v-0.1c-0.8-1.2-1.5-2.3-1.9-3.4c-0.1-0.5,0-0.8,0.1-1.1c0-0.1,0.1-0.1,0.1-0.1l-0.4-0.9
	c3.8-2.2,7-5.4,9.4-9.2c1.3-2,2.3-4.2,3-6.4l0.9,0.1c0.1,0,0.1-0.1,0.1-0.1c0.3-0.1,0.5-0.4,0.9-0.4h0.1c1.1,0.1,2.4,0.6,3.7,1.1
	h0.1c0.2,0.1,0.4,0.2,0.6,0.3c0.4,0.2,0.8,0.4,1.3,0.5c0.1,0,0.3,0.1,0.4,0.1c0.1,0,0.1,0,0.2,0.1c0.2,0.1,0.4,0.1,0.6,0.1
	c1.1,0,2-0.7,2.3-1.6C94,62,93.2,60.9,91.9,60.5L91.9,60.5z M58.9,57l-3.1,1.5L52.6,57l-0.8-3.4l2.1-2.7h3.5l2.1,2.7L58.9,57
	L58.9,57z M77.5,49.6c0.6,2.4,0.7,4.8,0.5,7.2l-10.9-3.1c-1-0.3-1.6-1.3-1.4-2.3c0.1-0.3,0.2-0.6,0.4-0.8l8.6-7.8
	C76,44.8,76.9,47.1,77.5,49.6L77.5,49.6z M71.4,38.5L62,45.2c-0.8,0.5-1.9,0.4-2.5-0.4c-0.2-0.2-0.3-0.5-0.4-0.8l-0.6-11.6
	C63.4,32.9,67.9,35.1,71.4,38.5L71.4,38.5z M50.6,32.7c0.8-0.1,1.5-0.3,2.3-0.4l-0.6,11.4c-0.1,1-0.9,1.9-1.9,1.9
	c-0.3,0-0.6-0.1-0.9-0.2L40,38.5C42.9,35.6,46.6,33.6,50.6,32.7L50.6,32.7z M36.6,42.8l8.5,7.6c0.8,0.6,0.9,1.9,0.2,2.6
	c-0.2,0.3-0.5,0.5-0.9,0.6l-11.1,3.2C32.9,52,34,47,36.6,42.8L36.6,42.8z M34.7,62.2L46,60.2c0.9-0.1,1.8,0.6,2,1.5
	c0.1,0.4,0.1,0.8-0.1,1.1l-4.4,10.5C39.6,70.8,36.4,66.9,34.7,62.2L34.7,62.2z M60.7,76.4c-1.6,0.4-3.3,0.6-5,0.6
	c-2.5,0-4.9-0.4-7.2-1.1l5.6-10.2c0.6-0.6,1.5-0.9,2.3-0.5c0.3,0.2,0.6,0.5,0.9,0.8l5.5,9.9C62.1,76,61.4,76.2,60.7,76.4L60.7,76.4z
	 M74.6,66.5c-1.8,2.9-4.1,5.1-6.9,6.9l-4.5-10.8c-0.2-0.9,0.1-1.8,1-2.2c0.3-0.1,0.6-0.2,1-0.2l11.4,1.9
	C76.3,63.7,75.6,65.1,74.6,66.5L74.6,66.5z"/>
<g id="border_1_" transform="translate(0.000000, 2.554588)">
	<g>
		<defs>
			<filter id="Adobe_OpacityMaskFilter" filterUnits="userSpaceOnUse" x="11.2" y="5.8" width="90.9" height="88.5">
				<feColorMatrix  type="matrix" values="1 0 0 0 0  0 1 0 0 0  0 0 1 0 0  0 0 0 1 0"/>
			</filter>
		</defs>
		<mask maskUnits="userSpaceOnUse" x="11.2" y="5.8" width="90.9" height="88.5" id="mask-2_7_">
			<g class="st1">
				<polygon id="path-1_7_" class="st2" points="102.1,94.3 102.1,5.8 11.2,5.8 11.2,94.3 				"/>
			</g>
		</mask>
		<path id="Fill-1_9_" class="st3" d="M56.7,5.8L56.7,5.8c-1.2,0-2.5,0.3-3.6,0.8L23.4,20.8c-2.4,1.1-4,3.2-4.6,5.7l-7.3,31.9
			c-0.6,2.5,0,5.1,1.6,7.2l20.6,25.6c1.6,2,4,3.1,6.5,3.1h33c2.5,0,4.9-1.1,6.5-3.1l20.6-25.6c1.6-2,2.2-4.6,1.6-7.2l-7.3-31.9
			c-0.6-2.5-2.2-4.6-4.6-5.7L60.3,6.6C59.2,6.1,58,5.8,56.7,5.8 M56.7,8.5c0.8,0,1.6,0.2,2.4,0.5l29.7,14.2c1.5,0.8,2.7,2.2,3.1,3.8
			L99.3,59c0.4,1.7,0,3.5-1.1,4.8L77.6,89.3c-1.1,1.4-2.7,2.1-4.4,2.1h-33c-1.7,0-3.3-0.8-4.4-2.1L15.2,63.8
			c-1.1-1.4-1.5-3.1-1.1-4.8L21.5,27c0.4-1.7,1.5-3.1,3.1-3.8L54.3,9C55,8.7,55.9,8.5,56.7,8.5"/>
	</g>
</g>
<circle class="st2" cx="55.9" cy="54.6" r="22.5"/>
<g>
	<polygon class="st4" points="44.2,67.8 62.1,57.6 57.4,54.7 44.5,62.3 43.7,62.8 	"/>
	<polygon class="st0" points="44.2,48.8 44.2,68.3 39.1,65.5 38.4,45.6 	"/>
	<polygon class="st4" points="56.3,69.3 44.2,62.5 39.1,65.5 56.7,75.1 56.6,75 	"/>
	<polygon class="st4" points="74.5,44.6 56,35.2 51.2,38.2 69,47.9 69.1,47.8 	"/>
	<path class="st0" d="M56.5,35.5c-0.1-0.1-0.3-0.2-0.4-0.2c0,0,0,0,0.1,0c0,0-0.2,0-0.2,0l-5,3.1l-0.1,20.2l5.8-3.2l-0.5-19.7
		C56.1,35.6,56.5,35.5,56.5,35.5z"/>
	<polygon class="st4" points="56.4,55.5 74.5,44.7 69.1,41.9 56.6,49.7 56.4,49.5 	"/>
	<path class="st4" d="M44.3,48.1l17-10.1L56,35.2l-12.3,7.4l-0.5,0.3l0.2,4.7C43.8,47.7,44.1,47.9,44.3,48.1z"/>
	<polygon class="st0" points="74.5,65 74.5,44.7 68.8,48 68.7,68.2 	"/>
	<polygon class="st4" points="56.7,75.1 74.5,64.9 69.5,62 56.8,69.6 56.6,69.5 	"/>
	<path class="st4" d="M69.7,66.9l3.4-2.8l-15.3-8.9l-5.1,2.4l15.9,10.1C68.8,67.4,69.4,67,69.7,66.9z"/>
	<polygon class="st5" points="60.7,72.8 60.9,52.8 56.7,55.3 56.7,75.1 	"/>
	<polygon class="st4" points="56.4,49.5 43.4,42.8 38.4,45.7 56.6,55.6 56.7,55.5 	"/>
	<polygon class="st0" points="56.8,55.2 56.7,75.1 52.7,72.9 53,53.6 	"/>
</g>
</svg>
