<?xml version="1.0" encoding="utf-8"?>
<!-- Generator: Adobe Illustrator 21.1.0, SVG Export Plug-In . SVG Version: 6.00 Build 0)  -->
<svg version="1.1" id="Layer_1" xmlns="http://www.w3.org/2000/svg" xmlns:xlink="http://www.w3.org/1999/xlink" x="0px" y="0px"
	 viewBox="0 0 447.3 106.6" style="enable-background:new 0 0 447.3 106.6;" xml:space="preserve">
<style type="text/css">
	.st0{fill:#326DE6;}
</style>
<g>
	<g>
		<path class="st0" d="M64.2,80.8c-1.2-2-2.7-4.1-4.4-6.4s-3.5-4.6-5.4-7c-1.9-2.3-4-4.6-6.1-6.7s-4.2-4-6.3-5.7v25.8H28.3V19.9H42
			v22.9c3.5-3.7,7.1-7.6,10.7-11.6c3.6-4,7-7.8,10.1-11.3h16.3c-4.1,4.9-8.3,9.7-12.5,14.2c-4.2,4.6-8.6,9.1-13.2,13.7
			c4.9,4.1,9.6,8.9,14.1,14.5s8.9,11.7,13,18.4H64.2z"/>
		<path class="st0" d="M123.9,79.2c-2.2,0.6-5.1,1.2-8.6,1.8c-3.5,0.6-7.2,0.8-11.1,0.8c-3.9,0-7.2-0.5-9.8-1.6
			c-2.6-1.1-4.7-2.5-6.2-4.4c-1.5-1.9-2.6-4.2-3.2-6.8c-0.6-2.6-1-5.5-1-8.7V34.6h13.1v24.2c0,4.2,0.6,7.3,1.7,9.1
			c1.1,1.9,3.2,2.8,6.2,2.8c0.9,0,1.9,0,3-0.1s2-0.2,2.8-0.3V34.6h13.1V79.2z"/>
		<path class="st0" d="M179.2,57.7c0,3.7-0.5,7-1.6,10c-1.1,3-2.6,5.5-4.7,7.6c-2.1,2.1-4.6,3.7-7.6,4.9c-3,1.1-6.4,1.7-10.2,1.7
			c-1.6,0-3.2-0.1-5-0.2c-1.7-0.1-3.4-0.3-5.1-0.6c-1.7-0.2-3.3-0.5-4.8-0.8c-1.5-0.3-2.9-0.7-4-1V14.7l13.1-2.1v23
			c1.5-0.6,3-1.1,4.6-1.5c1.6-0.4,3.3-0.5,5.1-0.5c3.3,0,6.2,0.6,8.7,1.7c2.5,1.1,4.6,2.8,6.3,4.9c1.7,2.1,3,4.6,3.9,7.6
			C178.7,50.8,179.2,54.1,179.2,57.7z M165.8,57.3c0-8.4-3.1-12.6-9.3-12.6c-1.3,0-2.7,0.2-4,0.5c-1.3,0.4-2.4,0.8-3.2,1.3v23.8
			c0.6,0.1,1.5,0.2,2.5,0.3c1,0.1,2.1,0.1,3.2,0.1c3.6,0,6.3-1.2,8.1-3.7C164.9,64.6,165.8,61.4,165.8,57.3z"/>
		<path class="st0" d="M187.1,58c0-4.1,0.6-7.7,1.9-10.8s2.9-5.6,5-7.7c2-2,4.4-3.6,7.1-4.7c2.7-1.1,5.4-1.6,8.2-1.6
			c6.6,0,11.7,2,15.5,6c3.8,4,5.7,9.9,5.7,17.7c0,0.8,0,1.6-0.1,2.5c-0.1,0.9-0.1,1.7-0.2,2.4h-29.7c0.3,2.7,1.5,4.8,3.8,6.4
			c2.2,1.6,5.2,2.4,9,2.4c2.4,0,4.8-0.2,7.1-0.7c2.3-0.4,4.2-1,5.7-1.6l1.8,10.6c-0.7,0.4-1.6,0.7-2.8,1.1c-1.2,0.4-2.5,0.7-3.9,0.9
			c-1.4,0.3-3,0.5-4.6,0.7c-1.6,0.2-3.3,0.3-4.9,0.3c-4.2,0-7.8-0.6-10.8-1.8c-3.1-1.2-5.6-2.9-7.6-5c-2-2.1-3.5-4.7-4.5-7.6
			C187.6,64.6,187.1,61.4,187.1,58z M217.8,53c-0.1-1.1-0.2-2.2-0.6-3.2c-0.3-1.1-0.8-2-1.5-2.8c-0.7-0.8-1.5-1.5-2.5-2
			c-1-0.5-2.3-0.8-3.8-0.8c-1.5,0-2.7,0.2-3.8,0.7c-1.1,0.5-1.9,1.2-2.6,2c-0.7,0.8-1.2,1.8-1.6,2.9c-0.4,1.1-0.7,2.2-0.8,3.3H217.8
			z"/>
		<path class="st0" d="M283.5,57.7c0,3.6-0.4,6.8-1.3,9.7c-0.9,2.9-2.2,5.4-3.9,7.6c-1.7,2.1-3.8,3.7-6.3,4.9
			c-2.5,1.2-5.4,1.8-8.7,1.8c-1.8,0-3.5-0.2-5.1-0.5c-1.6-0.4-3.1-0.8-4.6-1.5V97h-13.1V36.2c1.2-0.4,2.5-0.7,4-1
			c1.5-0.3,3.1-0.6,4.8-0.8c1.7-0.2,3.4-0.4,5.1-0.6c1.7-0.1,3.4-0.2,5-0.2c3.8,0,7.2,0.6,10.2,1.7c3,1.1,5.5,2.8,7.6,4.8
			c2,2.1,3.6,4.6,4.7,7.6C283,50.7,283.5,54,283.5,57.7z M270.2,58c0-4-0.9-7.3-2.7-9.7c-1.8-2.4-4.5-3.6-8.1-3.6
			c-1.2,0-2.3,0-3.2,0.1c-1,0.1-1.8,0.2-2.5,0.3v23.6c0.8,0.5,1.9,1,3.2,1.3c1.3,0.4,2.6,0.5,4,0.5C267.1,70.6,270.2,66.4,270.2,58z
			"/>
		<path class="st0" d="M310.2,33.4c3.9,0,7.1,0.4,9.7,1.3c2.6,0.9,4.6,2.1,6.2,3.8c1.6,1.6,2.6,3.6,3.3,6c0.6,2.3,1,4.9,1,7.8v27.2
			c-1.9,0.4-4.5,0.9-7.8,1.4c-3.3,0.6-7.4,0.8-12.1,0.8c-3,0-5.7-0.3-8.1-0.8c-2.4-0.5-4.5-1.4-6.3-2.6c-1.8-1.2-3.1-2.8-4-4.7
			c-0.9-1.9-1.4-4.3-1.4-7.1c0-2.7,0.5-5,1.6-6.9c1.1-1.9,2.5-3.4,4.3-4.5c1.8-1.1,3.9-1.9,6.2-2.4c2.3-0.5,4.8-0.7,7.3-0.7
			c1.7,0,3.2,0.1,4.5,0.2c1.3,0.1,2.4,0.3,3.2,0.6v-1.2c0-2.2-0.7-4-2-5.4c-1.3-1.3-3.7-2-7-2c-2.2,0-4.4,0.2-6.6,0.5
			c-2.2,0.3-4,0.8-5.6,1.4l-1.7-10.5c0.8-0.2,1.7-0.5,2.9-0.7c1.1-0.3,2.4-0.5,3.7-0.7c1.3-0.2,2.8-0.4,4.3-0.5
			C307.2,33.4,308.7,33.4,310.2,33.4z M311.3,71.7c1.3,0,2.5,0,3.7-0.1c1.2-0.1,2.1-0.1,2.8-0.3v-9.9c-0.5-0.1-1.3-0.2-2.4-0.4
			c-1.1-0.1-2-0.2-2.9-0.2c-1.2,0-2.4,0.1-3.5,0.2c-1.1,0.1-2,0.4-2.9,0.8c-0.8,0.4-1.5,1-1.9,1.7c-0.5,0.7-0.7,1.6-0.7,2.6
			c0,2.1,0.7,3.5,2.1,4.3C307,71.3,308.9,71.7,311.3,71.7z"/>
		<path class="st0" d="M340,57.7c0-3.3,0.5-6.5,1.6-9.4c1.1-3,2.6-5.5,4.7-7.7c2-2.2,4.5-3.9,7.5-5.2c2.9-1.3,6.3-1.9,10-1.9
			c2.5,0,4.7,0.2,6.8,0.7c2,0.4,4,1.1,6,1.9l-2.7,10.5c-1.2-0.5-2.6-0.9-4-1.2c-1.5-0.4-3.1-0.5-4.9-0.5c-3.9,0-6.7,1.2-8.7,3.6
			c-1.9,2.4-2.9,5.6-2.9,9.5c0,4.2,0.9,7.4,2.7,9.7c1.8,2.3,4.9,3.4,9.4,3.4c1.6,0,3.3-0.1,5.1-0.4c1.8-0.3,3.5-0.8,5-1.4l1.8,10.7
			c-1.5,0.6-3.4,1.2-5.7,1.7c-2.3,0.5-4.8,0.7-7.6,0.7c-4.2,0-7.8-0.6-10.9-1.9c-3-1.3-5.5-3-7.5-5.1c-2-2.2-3.4-4.7-4.3-7.7
			C340.4,64.4,340,61.1,340,57.7z"/>
		<path class="st0" d="M399.2,51.2c1.3-1.4,2.6-2.9,4-4.4c1.4-1.5,2.7-3,4-4.5c1.3-1.5,2.5-2.9,3.6-4.2c1.1-1.3,2.1-2.5,2.9-3.5
			h15.6c-3.1,3.6-6.1,7-9.1,10.2c-3,3.2-6.2,6.6-9.7,10c1.8,1.6,3.6,3.5,5.4,5.7c1.9,2.2,3.7,4.5,5.4,6.8s3.4,4.7,4.8,7
			c1.5,2.3,2.7,4.5,3.7,6.4h-15c-0.9-1.5-2-3.2-3.2-5.1c-1.2-1.8-2.5-3.7-3.8-5.5c-1.3-1.8-2.8-3.6-4.3-5.3c-1.5-1.7-3-3.1-4.4-4.3
			v20.2h-13.1v-66l13.1-2.1V51.2z"/>
	</g>
</g>
</svg>
